<svg width="48" height="32" viewBox="0 0 48 32" fill="none" xmlns="http://www.w3.org/2000/svg">
<path d="M23.2958 21.5471L23.9031 21.0362C25.7082 19.5177 27.0026 17.4809 27.611 15.2019C28.2193 12.9229 28.1122 10.512 27.304 8.29594C26.4959 6.07991 25.0258 4.16598 23.0932 2.81364C21.1605 1.4613 18.8588 0.735962 16.5 0.735962C14.1412 0.735962 11.8395 1.4613 9.90685 2.81364C7.97421 4.16598 6.50417 6.07991 5.69602 8.29594C4.88788 10.512 4.78071 12.9229 5.38907 15.2019C5.99742 17.4809 7.29186 19.5177 9.09689 21.0362L9.70424 21.5471L8.98116 21.8743C6.00799 23.2198 3.4495 25.3371 1.57169 28.0061L23.2958 21.5471ZM23.2958 21.5471L24.0189 21.8743M23.2958 21.5471L24.0189 21.8743M24.0189 21.8743C26.9922 23.2198 29.5507 25.3373 31.4286 28.0065L31.4357 28.0167L31.4434 28.0264C31.5893 28.2133 31.6956 28.4279 31.7561 28.6572C31.8165 28.8864 31.8297 29.1255 31.7949 29.36C31.7601 29.5946 31.6781 29.8196 31.5537 30.0214C31.4293 30.2232 31.2652 30.3977 31.0714 30.5341C30.8775 30.6706 30.6579 30.7663 30.426 30.8154C30.1941 30.8644 29.9546 30.8658 29.722 30.8195C29.4895 30.7732 29.2689 30.6802 29.0734 30.546C28.878 30.4118 28.7118 30.2393 28.585 30.0389L28.5786 30.0288L28.5717 30.019C27.211 28.0809 25.4037 26.499 23.3025 25.4069C21.2013 24.3148 18.8681 23.7446 16.5 23.7446C14.132 23.7446 11.7987 24.3148 9.69755 25.4069C7.59638 26.499 5.78903 28.0809 4.4283 30.019L4.42719 30.0206C4.26723 30.2503 4.05395 30.4378 3.80564 30.567C3.55732 30.6963 3.28138 30.7633 3.00145 30.7625L2.99839 30.7625C2.63938 30.7637 2.28908 30.652 1.99701 30.4433L1.99461 30.4416M24.0189 21.8743L1.99461 30.4416M1.99461 30.4416C1.61604 30.1743 1.35891 29.7679 1.27963 29.3113C1.20037 28.8549 1.30532 28.3857 1.57145 28.0065L1.99461 30.4416ZM46.2901 30.4391L46.2901 30.4391C46.4787 30.3084 46.6394 30.1415 46.7628 29.9481C46.8863 29.7547 46.9701 29.5387 47.0094 29.3126C47.0486 29.0866 47.0426 28.855 46.9915 28.6313C46.9405 28.4076 46.8455 28.1962 46.712 28.0096L46.7098 28.0065C44.832 25.3373 42.2734 23.2198 39.3001 21.8743L38.5751 21.5462L39.1853 21.0354C40.9952 19.5205 42.2942 17.4846 42.9055 15.2049C43.5168 12.9252 43.4107 10.5125 42.6016 8.29533C41.7925 6.07814 40.3197 4.16417 38.3838 2.81403C36.4479 1.46389 34.1429 0.743186 31.7827 0.75004L31.7804 0.750047C30.7301 0.748296 29.6846 0.89333 28.6744 1.18093L28.6654 1.18349L28.6654 1.1834C28.441 1.24278 28.2307 1.34621 28.0467 1.48765C27.8626 1.6291 27.7086 1.80574 27.5935 2.0073C27.4784 2.20885 27.4045 2.4313 27.3762 2.66167C27.3479 2.89204 27.3657 3.12575 27.4285 3.34918C27.4914 3.57262 27.5981 3.78131 27.7424 3.96311L27.364 4.26349L27.7424 3.96311C27.8867 4.14492 28.0657 4.2962 28.269 4.40815C28.4724 4.52011 28.6959 4.59049 28.9267 4.61521C29.1575 4.63994 29.3909 4.6185 29.6133 4.55215L29.6191 4.55044L29.6191 4.55047C30.3226 4.34979 31.0507 4.24867 31.7822 4.25004M46.2901 30.4391L43.4438 30.3063L43.8524 30.0182C43.8523 30.018 43.8522 30.0178 43.852 30.0176C42.4886 28.0834 40.6808 26.5046 38.5806 25.414C36.4801 24.3233 34.1486 23.7526 31.7818 23.75H31.7813C31.3171 23.75 30.872 23.5657 30.5438 23.2375C30.2156 22.9093 30.0313 22.4642 30.0313 22C30.0313 21.5359 30.2156 21.0908 30.5438 20.7626C30.872 20.4344 31.3171 20.25 31.7813 20.25C33.903 20.25 35.9378 19.4072 37.4381 17.9069C38.9384 16.4066 39.7813 14.3718 39.7813 12.25C39.7813 10.1283 38.9384 8.09348 37.4381 6.59319C35.938 5.09312 33.9036 4.25029 31.7822 4.25004M46.2901 30.4391L46.2843 30.4433M46.2901 30.4391L46.2843 30.4433M31.7822 4.25004L31.7813 4.75004V4.25004C31.7816 4.25004 31.7819 4.25004 31.7822 4.25004ZM39.5063 21.4188L39.7124 20.9633C39.7812 20.9944 39.8497 21.0259 39.9181 21.0578C39.7838 21.181 39.6465 21.3014 39.5063 21.4188ZM39.5063 21.4188L39.8272 21.8022C39.8863 21.7528 39.9448 21.7028 40.0029 21.6523C39.8387 21.5722 39.6731 21.4943 39.5063 21.4188ZM46.2843 30.4433C45.9924 30.6519 45.6423 30.7636 45.2835 30.7625L46.2843 30.4433ZM9.84826 7.80548C8.96921 9.12107 8.50001 10.6678 8.50001 12.25C8.50001 14.3718 9.34287 16.4066 10.8432 17.9069C12.3435 19.4072 14.3783 20.25 16.5 20.25C18.0823 20.25 19.629 19.7809 20.9446 18.9018C22.2602 18.0227 23.2855 16.7733 23.8911 15.3115C24.4966 13.8497 24.655 12.2412 24.3463 10.6893C24.0376 9.13747 23.2757 7.71201 22.1569 6.59319C21.038 5.47437 19.6126 4.71244 18.0607 4.40376C16.5089 4.09508 14.9004 4.2535 13.4385 4.85901C11.9767 5.46451 10.7273 6.48989 9.84826 7.80548Z" fill="#4CAF4F" stroke="#4CAF4F"/>
</svg>
